<mxfile name="IDEF0_Template.drawio" type="device">
  <diagram name="Страница-1" id="0">
    <mxGraphModel dx="1200" dy="800" grid="1" gridSize="10" guides="1" tooltips="1" connect="1" arrows="1" fold="1" page="1" pageScale="1" pageWidth="827" pageHeight="1169" math="0" shadow="0">
      <root>
        <!-- Основной блок процесса (A0) -->
        <mxCell id="A0" value="Название процесса (A0)" style="swimlane;rounded=0;whiteSpace=wrap;html=1;fillColor=#ffffff;strokeColor=#000000;" vertex="1" parent="1">
          <mxGeometry x="300" y="200" width="400" height="350" as="geometry" />
        </mxCell>

        <!-- Подпроцессы (A1-A4) -->
        <mxCell id="A1" value="A1: Подпроцесс 1" style="rounded=0;whiteSpace=wrap;html=1;fillColor=#ffffff;strokeColor=#000000;" vertex="1" parent="A0">
          <mxGeometry x="80" y="60" width="240" height="50" as="geometry" />
        </mxCell>
        <mxCell id="A2" value="A2: Подпроцесс 2" style="rounded=0;whiteSpace=wrap;html=1;fillColor=#ffffff;strokeColor=#000000;" vertex="1" parent="A0">
          <mxGeometry x="80" y="130" width="240" height="50" as="geometry" />
        </mxCell>
        <mxCell id="A3" value="A3: Подпроцесс 3" style="rounded=0;whiteSpace=wrap;html=1;fillColor=#ffffff;strokeColor=#000000;" vertex="1" parent="A0">
          <mxGeometry x="80" y="200" width="240" height="50" as="geometry" />
        </mxCell>
        <mxCell id="A4" value="A4: Подпроцесс 4" style="rounded=0;whiteSpace=wrap;html=1;fillColor=#ffffff;strokeColor=#000000;" vertex="1" parent="A0">
          <mxGeometry x="80" y="270" width="240" height="50" as="geometry" />
        </mxCell>

        <!-- Входы (слева) -->
        <mxCell id="Input1" value="Вход 1" style="rounded=0;whiteSpace=wrap;html=1;" vertex="1" parent="1">
          <mxGeometry x="150" y="220" width="120" height="40" as="geometry" />
        </mxCell>
        <mxCell id="Input2" value="Вход 2" style="rounded=0;whiteSpace=wrap;html=1;" vertex="1" parent="1">
          <mxGeometry x="150" y="280" width="120" height="40" as="geometry" />
        </mxCell>

        <!-- Управления (сверху) -->
        <mxCell id="Control1" value="Управление 1" style="rounded=0;whiteSpace=wrap;html=1;" vertex="1" parent="1">
          <mxGeometry x="400" y="120" width="120" height="40" as="geometry" />
        </mxCell>

        <!-- Выходы (справа) -->
        <mxCell id="Output1" value="Выход 1" style="rounded=0;whiteSpace=wrap;html=1;" vertex="1" parent="1">
          <mxGeometry x="730" y="220" width="120" height="40" as="geometry" />
        </mxCell>
        <mxCell id="Output2" value="Выход 2" style="rounded=0;whiteSpace=wrap;html=1;" vertex="1" parent="1">
          <mxGeometry x="730" y="300" width="120" height="40" as="geometry" />
        </mxCell>

        <!-- Механизмы (снизу) -->
        <mxCell id="Mechanism1" value="Механизм 1" style="rounded=0;whiteSpace=wrap;html=1;" vertex="1" parent="1">
          <mxGeometry x="400" y="530" width="120" height="40" as="geometry" />
        </mxCell>

        <!-- Соединения для входов -->
        <mxCell id="conn1" style="edgeStyle=none;html=1;exitX=1;exitY=0.5;exitDx=0;exitDy=0;entryX=0;entryY=0.5;entryDx=0;entryDy=0;" edge="1" parent="1" source="Input1" target="A1"/>
        <mxCell id="conn2" style="edgeStyle=none;html=1;exitX=1;exitY=0.5;exitDx=0;exitDy=0;entryX=0;entryY=0.5;entryDx=0;entryDy=0;" edge="1" parent="1" source="Input2" target="A2"/>

        <!-- Соединения для управлений -->
        <mxCell id="conn3" style="edgeStyle=none;html=1;exitX=0.5;exitY=1;exitDx=0;exitDy=0;entryX=0.25;entryY=0;entryDx=0;entryDy=0;" edge="1" parent="1" source="Control1" target="A0"/>

        <!-- Соединения для выходов -->
        <mxCell id="conn4" style="edgeStyle=none;html=1;exitX=1;exitY=0.5;exitDx=0;exitDy=0;entryX=0;entryY=0.5;entryDx=0;entryDy=0;" edge="1" parent="1" source="A3" target="Output1"/>
        <mxCell id="conn5" style="edgeStyle=none;html=1;exitX=1;exitY=0.5;exitDx=0;exitDy=0;entryX=0;entryY=0.5;entryDx=0;entryDy=0;" edge="1" parent="1" source="A4" target="Output2"/>

        <!-- Соединения для механизмов -->
        <mxCell id="conn6" style="edgeStyle=none;html=1;exitX=0.5;exitY=0;exitDx=0;exitDy=0;entryX=0.75;entryY=1;entryDx=0;entryDy=0;" edge="1" parent="1" source="Mechanism1" target="A0"/>
      </root>
    </mxGraphModel>
  </diagram>
</mxfile>
